<!-- Generator: Adobe Illustrator 20.1.0, SVG Export Plug-In  -->
<svg version="1.1"
	 xmlns="http://www.w3.org/2000/svg" xmlns:xlink="http://www.w3.org/1999/xlink" xmlns:a="http://ns.adobe.com/AdobeSVGViewerExtensions/3.0/"
	 x="0px" y="0px" width="80.8px" height="160.6px" viewBox="0 0 80.8 160.6" style="enable-background:new 0 0 80.8 160.6;"
	 xml:space="preserve">
<style type="text/css">
	.st0{fill:#3A3A3B;}
</style>
<defs>
</defs>
<path class="st0" d="M9.5,70.3h58.1c2.5,0,4.5-2,4.5-4.5V55.2c0-2.5-2-4.5-4.5-4.5H9.5c-2.5,0-4.5,2-4.5,4.5v10.5
	C5.1,68.2,7,70.3,9.5,70.3z M21,57.7c0-1,0.8-1.9,1.9-1.9h31.5c1,0,1.9,0.8,1.9,1.9v5.6c0,1-0.8,1.9-1.9,1.9H22.8
	c-1,0-1.9-0.8-1.9-1.9V57.7z M70.9,45.3h1v-1v-4.5v-0.1l0-0.1L68.4,7.1c-0.3-2.6-2.1-4.4-4.4-4.4H13.2c-2.3,0-4,1.6-4.4,4.3
	c0,0.1-3.5,32.7-3.5,32.7l0,0.1v0.1v4.5v1h1H70.9z M7.3,39.9L10,14.4c0.5-1.6,1.6-2.6,3.2-2.6H64c1.5,0,2.7,1,3.2,2.5
	c1,9.4,2.7,25.1,2.7,25.6v3.4H7.3V39.9z M9.5,123.3h58.1c2.5,0,4.5-2,4.5-4.5V86v-0.5v-0.5v-0.8c0-0.4-0.1-0.8-0.2-1.2
	c-0.5-1.9-2.2-3.3-4.3-3.3H9.5c-2,0-3.8,1.4-4.3,3.3c-0.1,0.4-0.2,0.8-0.2,1.2v0.8v0.5V86v32.8C5.1,121.3,7,123.3,9.5,123.3z
	 M39.5,90.5h28.2c1,0,1.9,0.4,2.5,1.1v27.2c0,1.4-1.1,2.6-2.5,2.6H39.5V90.5z M7,91.6c0.6-0.7,1.5-1.1,2.5-1.1h27.8v30.9H9.5
	c-1.4,0-2.5-1.2-2.5-2.6V91.6z M79,89.1h-0.8v-7.6h-0.6v0h-1.7v-0.6V48.7v-7.9v0l0,0L72,4.3C71.6,1.7,69.9,0,67.6,0h-58
	c-2.3,0-4,1.6-4.4,4.3c0,0-3.9,36.5-3.9,36.5l0,0v0v7.9v32.1v0.8V127v0.5v15.7H0.5H0v0.5v6.7c0,2.2,1.8,4.1,4,4.3v1.6
	c0,2.4,2.4,4.4,5.4,4.4h11.4c3,0,5.4-2,5.4-4.4v-1.5h24.6v1.5c0,2.4,2.4,4.4,5.4,4.4h11.4c3,0,5.4-2,5.4-4.4v-1.5
	c2.4-0.1,4.3-2,4.3-4.4v-6.7v-0.5h-0.5h-0.8v-15.7V127V99.8c0.1,0,0.1,0,0.2,0H79c1,0,1.8-0.8,1.8-1.8v-7.2
	C80.8,89.9,80,89.1,79,89.1z M75.9,82.7h1.2v6.4h-1c-0.1,0-0.1,0-0.2,0V82.7z M2.2,48.7v-7.8L6.1,4.4c0.4-2.2,1.6-3.5,3.5-3.5h1.1
	c0.1,0,0.2,0,0.2,0h55.3c0.1,0,0.2,0,0.2,0h1.1c1.9,0,3.2,1.4,3.5,3.5c0,0,3.8,35.7,3.9,36.4v7.8v29.5c-0.3-0.4-0.8-0.8-1.2-1.1
	c-0.7-0.4-1.4-0.6-2.2-0.6H5.7c-0.8,0-1.6,0.2-2.2,0.6c-0.5,0.3-0.9,0.7-1.2,1.1V48.7z M2.2,84.3v-0.9v-1.8v-0.8
	c0-1.1,0.5-2,1.2-2.6c0.6-0.5,1.4-0.8,2.2-0.8h65.8c0.9,0,1.6,0.3,2.2,0.8c0.8,0.6,1.2,1.6,1.2,2.6v0.8v1.8v0.9v5.2
	c-0.4,0.3-0.7,0.8-0.7,1.4v7.2c0,0.6,0.3,1,0.7,1.4v26.8H74H3.1H2.2V84.3z M2.2,127.9h0.9h13.4l0,0l2,3.3l0.1,0.1l0.1,0.2h0.3h3.8
	H54h4.1h0.3l0.1-0.2l0.1-0.1l2-3.3l0,0H74H75v15.2H74h-0.1h-1H50.7H26.2H4H3.2H3.1H2.2V127.9z M14.6,144.4v7.9v0.4v0.9v0.1H5.7H4.5
	c-0.2,0-0.4,0-0.5-0.1c-0.1,0-0.2,0-0.3-0.1c-0.6-0.1-1.1-0.4-1.5-0.8c-0.7-0.6-1.2-1.5-1.2-2.6V144h0.4h0.5h0.5h0.9h0.1H4h10.6
	V144.4z M62.5,144.4v7.9v0.4v0.9v0.1H50.7H26.2H15.4v-0.1v-0.9v-0.4v-7.9V144h10.7h24.6h11.8V144.4z M76.2,144v6.2
	c0,1-0.5,1.9-1.2,2.6c-0.4,0.4-1,0.6-1.5,0.8c-0.2,0-0.4,0.1-0.6,0.1c-0.1,0-0.2,0-0.3,0h-1.1h-8.2v-0.1v-0.9v-0.4v-7.9V144h9.5h1
	H74H75h0.5h0.5H76.2z M79.8,98.1c0,0.5-0.4,0.9-0.9,0.9H76c-0.1,0-0.1,0-0.2,0c-0.2,0-0.3-0.1-0.5-0.2c-0.1-0.2-0.2-0.4-0.2-0.6
	v-7.2c0-0.2,0.1-0.4,0.2-0.6c0.1-0.1,0.3-0.2,0.5-0.2c0.1,0,0.1,0,0.2,0h1v1.5c-0.5,0.2-0.9,0.7-0.9,1.3c0,0.8,0.6,1.4,1.4,1.4
	c0.8,0,1.4-0.6,1.4-1.4c0-0.6-0.4-1.1-0.8-1.3V90H79c0.5,0,0.9,0.4,0.9,0.9V98.1z M11.5,142c3.5,0,6.4-2.8,6.4-6.4
	c0-1.4-0.4-2.6-1.2-3.7c-1.2-1.6-3-2.7-5.2-2.7c-2.6,0-4.8,1.5-5.8,3.7c-0.4,0.8-0.6,1.7-0.6,2.6C5.1,139.1,8,142,11.5,142z
	 M7.2,132.3c1-1.3,2.6-2.1,4.3-2.1c1.6,0,3,0.7,4.1,1.8c0.9,1,1.4,2.2,1.4,3.7c0,3-2.5,5.5-5.5,5.5c-3,0-5.5-2.5-5.5-5.5
	C6,134.3,6.5,133.2,7.2,132.3z M6.8,135.6c0-1.5,0.7-2.8,1.8-3.6c0.8-0.6,1.8-1,2.9-1c1.1,0,2,0.4,2.8,1c1.1,0.9,1.8,2.2,1.8,3.7
	c0,2.6-2.1,4.6-4.6,4.6C8.9,140.2,6.8,138.2,6.8,135.6z M65.5,142c3.5,0,6.4-2.8,6.4-6.4c0-0.7-0.1-1.3-0.3-1.9
	c-0.8-2.6-3.2-4.5-6-4.5c-2.1,0-4,1.1-5.2,2.7c-0.7,1-1.2,2.3-1.2,3.7C59.1,139.1,62,142,65.5,142z M61.4,131.9
	c1-1.1,2.4-1.8,4.1-1.8c1.9,0,3.6,1,4.6,2.5c0.6,0.9,0.9,1.9,0.9,3c0,3-2.5,5.5-5.5,5.5c-3,0-5.5-2.5-5.5-5.5
	C60,134.2,60.5,132.9,61.4,131.9z M60.8,135.6c0-1.5,0.7-2.8,1.8-3.7c0.8-0.6,1.8-1,2.8-1c1.1,0,2.2,0.4,3,1.1
	c1,0.9,1.7,2.1,1.7,3.5c0,2.6-2.1,4.6-4.6,4.6C62.9,140.2,60.8,138.2,60.8,135.6z"/>
</svg>
